<svg width="107" height="53" viewBox="0 0 107 53" fill="none" xmlns="http://www.w3.org/2000/svg">
<rect x="0.630758" y="0.4826" width="91" height="53" transform="matrix(1 0 0.261515 0.965199 -0.126207 0.0167948)" fill="#636E72"/>
<rect width="90" height="52" transform="matrix(1 0 0.261515 0.965199 1.26152 0.96521)" fill="black"/>
<rect width="26" height="46" transform="matrix(1 0 0.261515 0.965199 5.04607 3.86084)" fill="#477FB2"/>
<rect width="26" height="46" transform="matrix(1 0 0.261515 0.965199 34.0461 3.86084)" fill="#477FB2"/>
<rect width="26" height="46" transform="matrix(1 0 0.261515 0.965199 63.0461 3.86084)" fill="#477FB2"/>
<rect opacity="0.35" width="84" height="15" transform="matrix(1 0 0.261515 0.965199 4.98193 3.86084)" fill="black"/>
<rect opacity="0.35" width="84" height="5" transform="matrix(1 0 0.261515 0.965199 9.81383 21.6943)" fill="black"/>
<rect opacity="0.35" width="84" height="5" transform="matrix(1 0 0.261515 0.965199 12.0306 29.8759)" fill="black"/>
<rect opacity="0.35" width="84" height="6" transform="matrix(1 0 0.261515 0.965199 14.2473 38.0574)" fill="black"/>
<rect x="0.630758" y="0.4826" width="91" height="53" transform="matrix(1 0 0.261515 0.965199 -0.126207 0.0167948)" stroke="#636E72"/>
</svg>
