<svg width="9" height="11" viewBox="0 0 9 11" fill="none" xmlns="http://www.w3.org/2000/svg">
<g clip-path="url(#clip0_1158_10235)">
<path d="M5.11523 1.125C2.70312 1.125 0.75 3.08398 0.75 5.5C0.75 7.91602 2.70312 9.875 5.11523 9.875C6.29883 9.875 7.37109 9.40234 8.1582 8.63672C8.25586 8.54102 8.28125 8.39258 8.21875 8.27148C8.15625 8.15039 8.02148 8.08203 7.88672 8.10547C7.69531 8.13867 7.5 8.15625 7.29883 8.15625C5.40625 8.15625 3.87109 6.61719 3.87109 4.71875C3.87109 3.43359 4.57422 2.31445 5.61523 1.72461C5.73438 1.65625 5.79492 1.51953 5.76562 1.38672C5.73633 1.25391 5.62305 1.1543 5.48633 1.14258C5.36328 1.13281 5.24023 1.12695 5.11523 1.12695V1.125Z" fill="#636E72"/>
</g>
<defs>
<clipPath id="clip0_1158_10235">
<rect width="7.5" height="10" fill="white" transform="translate(0.75 0.5)"/>
</clipPath>
</defs>
</svg>
