<svg width="18" height="13" viewBox="0 0 18 13" fill="none" xmlns="http://www.w3.org/2000/svg">
<g opacity="0.5">
<path d="M4.53327 11H4.52746C4.77619 8.75002 6.68372 7 9 7C11.3163 7 13.2238 8.75002 13.4725 11H13.4667H13.4599H13.453H13.4461H13.4391H13.4321H13.4251H13.418H13.4109H13.4037H13.3965H13.3893H13.382H13.3747H13.3674H13.36H13.3525H13.3451H13.3376H13.33H13.3224H13.3148H13.3071H13.2995H13.2917H13.2839H13.2761H13.2683H13.2604H13.2525H13.2445H13.2365H13.2285H13.2204H13.2123H13.2041H13.196H13.1877H13.1795H13.1712H13.1629H13.1545H13.1461H13.1376H13.1292H13.1206H13.1121H13.1035H13.0949H13.0862H13.0775H13.0688H13.06H13.0512H13.0424H13.0335H13.0246H13.0157H13.0067H12.9977H12.9886H12.9795H12.9704H12.9612H12.9521H12.9428H12.9336H12.9243H12.9149H12.9056H12.8962H12.8867H12.8773H12.8678H12.8582H12.8487H12.8391H12.8294H12.8198H12.8101H12.8003H12.7905H12.7807H12.7709H12.761H12.7511H12.7412H12.7312H12.7212H12.7112H12.7011H12.691H12.6808H12.6707H12.6605H12.6502H12.64H12.6297H12.6193H12.609H12.5986H12.5882H12.5777H12.5672H12.5567H12.5461H12.5355H12.5249H12.5143H12.5036H12.4929H12.4821H12.4713H12.4605H12.4497H12.4388H12.4279H12.417H12.406H12.395H12.384H12.373H12.3619H12.3508H12.3396H12.3285H12.3172H12.306H12.2947H12.2835H12.2721H12.2608H12.2494H12.238H12.2265H12.2151H12.2036H12.192H12.1805H12.1689H12.1573H12.1456H12.1339H12.1222H12.1105H12.0987H12.0869H12.0751H12.0633H12.0514H12.0395H12.0275H12.0156H12.0036H11.9916H11.9795H11.9675H11.9554H11.9432H11.9311H11.9189H11.9067H11.8944H11.8822H11.8699H11.8576H11.8452H11.8328H11.8204H11.808H11.7955H11.7831H11.7706H11.758H11.7455H11.7329H11.7203H11.7076H11.6949H11.6823H11.6695H11.6568H11.644H11.6312H11.6184H11.6056H11.5927H11.5798H11.5669H11.5539H11.5409H11.5279H11.5149H11.5019H11.4888H11.4757H11.4626H11.4494H11.4362H11.423H11.4098H11.3966H11.3833H11.37H11.3567H11.3433H11.33H11.3166H11.3032H11.2897H11.2763H11.2628H11.2493H11.2357H11.2222H11.2086H11.195H11.1814H11.1677H11.154H11.1403H11.1266H11.1129H11.0991H11.0853H11.0715H11.0577H11.0438H11.03H11.0161H11.0021H10.9882H10.9742H10.9602H10.9462H10.9322H10.9181H10.9041H10.89H10.8759H10.8617H10.8476H10.8334H10.8192H10.8049H10.7907H10.7764H10.7622H10.7478H10.7335H10.7192H10.7048H10.6904H10.676H10.6616H10.6471H10.6326H10.6182H10.6036H10.5891H10.5746H10.56H10.5454H10.5308H10.5162H10.5015H10.4868H10.4722H10.4575H10.4427H10.428H10.4132H10.3984H10.3836H10.3688H10.354H10.3391H10.3242H10.3093H10.2944H10.2795H10.2645H10.2496H10.2346H10.2196H10.2046H10.1895H10.1745H10.1594H10.1443H10.1292H10.1141H10.0989H10.0837H10.0686H10.0534H10.0382H10.0229H10.0077H9.99241H9.97713H9.96183H9.94651H9.93118H9.91583H9.90046H9.88508H9.86969H9.85427H9.83884H9.82339H9.80793H9.79245H9.77696H9.76145H9.74593H9.73038H9.71483H9.69926H9.68367H9.66807H9.65245H9.63682H9.62117H9.60551H9.58983H9.57414H9.55843H9.54271H9.52697H9.51122H9.49546H9.47968H9.46388H9.44807H9.43225H9.41642H9.40057H9.3847H9.36882H9.35293H9.33703H9.32111H9.30518H9.28923H9.27327H9.2573H9.24131H9.22532H9.2093H9.19328H9.17724H9.16119H9.14513H9.12905H9.11296H9.09686H9.08075H9.06462H9.04849H9.03234H9.01617H9H8.98383H8.96766H8.95151H8.93538H8.91925H8.90314H8.88704H8.87095H8.85487H8.83881H8.82276H8.80672H8.7907H8.77468H8.75869H8.7427H8.72673H8.71077H8.69482H8.67889H8.66297H8.64707H8.63118H8.6153H8.59943H8.58358H8.56775H8.55193H8.53612H8.52032H8.50454H8.48878H8.47303H8.45729H8.44157H8.42586H8.41017H8.39449H8.37883H8.36318H8.34755H8.33193H8.31633H8.30074H8.28517H8.26962H8.25407H8.23855H8.22304H8.20755H8.19207H8.17661H8.16116H8.14573H8.13031H8.11492H8.09954H8.08417H8.06882H8.05349H8.03817H8.02287H8.00759H7.99233H7.97708H7.96184H7.94663H7.93143H7.91625H7.90109H7.88594H7.87081H7.8557H7.84061H7.82553H7.81048H7.79544H7.78041H7.76541H7.75042H7.73545H7.7205H7.70557H7.69066H7.67576H7.66089H7.64603H7.63119H7.61637H7.60157H7.58678H7.57202H7.55727H7.54255H7.52784H7.51315H7.49848H7.48384H7.46921H7.4546H7.44001H7.42544H7.41089H7.39635H7.38184H7.36735H7.35288H7.33843H7.324H7.30959H7.2952H7.28083H7.26648H7.25216H7.23785H7.22356H7.2093H7.19505H7.18083H7.16663H7.15244H7.13828H7.12415H7.11003H7.09593H7.08186H7.06781H7.05377H7.03977H7.02578H7.01181H6.99787H6.98395H6.97005H6.95617H6.94232H6.92848H6.91468H6.90089H6.88712H6.87338H6.85966H6.84597H6.83229H6.81864H6.80502H6.79141H6.77783H6.76427H6.75074H6.73723H6.72374H6.71028H6.69684H6.68342H6.67003H6.65666H6.64332H6.63H6.6167H6.60343H6.59018H6.57696H6.56376H6.55059H6.53744H6.52432H6.51122H6.49814H6.48509H6.47207H6.45907H6.44609H6.43314H6.42022H6.40732H6.39444H6.3816H6.36877H6.35598H6.34321H6.33046H6.31774H6.30505H6.29238H6.27974H6.26713H6.25454H6.24198H6.22944H6.21693H6.20445H6.192H6.17957H6.16717H6.15479H6.14244H6.13012H6.11783H6.10556H6.09332H6.08111H6.06893H6.05677H6.04464H6.03254H6.02047H6.00842H5.9964H5.98441H5.97245H5.96052H5.94861H5.93673H5.92489H5.91306H5.90127H5.88951H5.87778H5.86607H5.85439H5.84274H5.83113H5.81954H5.80797H5.79644H5.78494H5.77347H5.76202H5.75061H5.73923H5.72787H5.71655H5.70525H5.69399H5.68275H5.67155H5.66037H5.64923H5.63811H5.62703H5.61598H5.60495H5.59396H5.583H5.57207H5.56117H5.5503H5.53946H5.52865H5.51788H5.50713H5.49642H5.48574H5.47509H5.46447H5.45388H5.44332H5.4328H5.42231H5.41185H5.40142H5.39102H5.38066H5.37032H5.36003H5.34976H5.33952H5.32932H5.31915H5.30901H5.29891H5.28884H5.2788H5.26879H5.25882H5.24888H5.23898H5.2291H5.21926H5.20946H5.19968H5.18995H5.18024H5.17057H5.16093H5.15133H5.14176H5.13222H5.12272H5.11325H5.10382H5.09442H5.08506H5.07573H5.06643H5.05717H5.04794H5.03875H5.0296H5.02048H5.01139H5.00234H4.99332H4.98434H4.9754H4.96649H4.95761H4.94877H4.93997H4.9312H4.92247H4.91378H4.90512H4.8965H4.88791H4.87936H4.87084H4.86236H4.85392H4.84552H4.83715H4.82881H4.82052H4.81226H4.80404H4.79585H4.78771H4.7796H4.77152H4.76349H4.75549H4.74753H4.7396H4.73172H4.72387H4.71606H4.70828H4.70055H4.69285H4.68519H4.67757H4.66999H4.66244H4.65494H4.64747H4.64004H4.63265H4.6253H4.61798H4.61071H4.60347H4.59628H4.58912H4.582H4.57492H4.56788H4.56088H4.55392H4.547H4.54011H4.53327Z" fill="#636E72" stroke="#636E72"/>
<path d="M8.5 5.5C8.5 5.77614 8.72386 6 9 6C9.27614 6 9.5 5.77614 9.5 5.5H8.5ZM9.35355 0.146447C9.15829 -0.0488157 8.84171 -0.0488157 8.64645 0.146447L5.46447 3.32843C5.2692 3.52369 5.2692 3.84027 5.46447 4.03553C5.65973 4.2308 5.97631 4.2308 6.17157 4.03553L9 1.20711L11.8284 4.03553C12.0237 4.2308 12.3403 4.2308 12.5355 4.03553C12.7308 3.84027 12.7308 3.52369 12.5355 3.32843L9.35355 0.146447ZM9.5 5.5V0.5H8.5V5.5H9.5Z" fill="#636E72"/>
<line x1="0.5" y1="12" x2="17.5" y2="12" stroke="#636E72" stroke-linecap="round"/>
</g>
</svg>
