<svg width="19" height="13" viewBox="0 0 19 13" fill="none" xmlns="http://www.w3.org/2000/svg">
<g opacity="1">
<path d="M4.86726 11H4.86145C5.11017 8.75002 7.01771 7 9.33398 7C11.6503 7 13.5578 8.75002 13.8065 11H13.8007H13.7939H13.787H13.7801H13.7731H13.7661H13.7591H13.752H13.7449H13.7377H13.7305H13.7233H13.716H13.7087H13.7013H13.6939H13.6865H13.679H13.6715H13.664H13.6564H13.6488H13.6411H13.6334H13.6257H13.6179H13.6101H13.6023H13.5944H13.5865H13.5785H13.5705H13.5625H13.5544H13.5463H13.5381H13.5299H13.5217H13.5135H13.5052H13.4968H13.4885H13.4801H13.4716H13.4631H13.4546H13.4461H13.4375H13.4289H13.4202H13.4115H13.4028H13.394H13.3852H13.3764H13.3675H13.3586H13.3496H13.3407H13.3316H13.3226H13.3135H13.3044H13.2952H13.286H13.2768H13.2676H13.2583H13.2489H13.2396H13.2302H13.2207H13.2113H13.2018H13.1922H13.1827H13.1731H13.1634H13.1537H13.144H13.1343H13.1245H13.1147H13.1049H13.095H13.0851H13.0752H13.0652H13.0552H13.0451H13.0351H13.025H13.0148H13.0047H12.9945H12.9842H12.974H12.9637H12.9533H12.943H12.9326H12.9221H12.9117H12.9012H12.8907H12.8801H12.8695H12.8589H12.8482H12.8376H12.8269H12.8161H12.8053H12.7945H12.7837H12.7728H12.7619H12.751H12.74H12.729H12.718H12.707H12.6959H12.6848H12.6736H12.6624H12.6512H12.64H12.6287H12.6174H12.6061H12.5948H12.5834H12.572H12.5605H12.549H12.5375H12.526H12.5144H12.5029H12.4912H12.4796H12.4679H12.4562H12.4445H12.4327H12.4209H12.4091H12.3973H12.3854H12.3735H12.3615H12.3496H12.3376H12.3256H12.3135H12.3014H12.2893H12.2772H12.2651H12.2529H12.2407H12.2284H12.2162H12.2039H12.1915H12.1792H12.1668H12.1544H12.142H12.1295H12.117H12.1045H12.092H12.0794H12.0669H12.0542H12.0416H12.0289H12.0162H12.0035H11.9908H11.978H11.9652H11.9524H11.9395H11.9267H11.9138H11.9008H11.8879H11.8749H11.8619H11.8489H11.8358H11.8228H11.8097H11.7965H11.7834H11.7702H11.757H11.7438H11.7306H11.7173H11.704H11.6907H11.6773H11.664H11.6506H11.6371H11.6237H11.6102H11.5968H11.5832H11.5697H11.5562H11.5426H11.529H11.5153H11.5017H11.488H11.4743H11.4606H11.4469H11.4331H11.4193H11.4055H11.3917H11.3778H11.3639H11.35H11.3361H11.3222H11.3082H11.2942H11.2802H11.2662H11.2521H11.2381H11.224H11.2098H11.1957H11.1815H11.1674H11.1532H11.1389H11.1247H11.1104H11.0961H11.0818H11.0675H11.0532H11.0388H11.0244H11.01H10.9956H10.9811H10.9666H10.9521H10.9376H10.9231H10.9085H10.894H10.8794H10.8648H10.8501H10.8355H10.8208H10.8061H10.7914H10.7767H10.762H10.7472H10.7324H10.7176H10.7028H10.688H10.6731H10.6582H10.6433H10.6284H10.6135H10.5985H10.5836H10.5686H10.5536H10.5385H10.5235H10.5085H10.4934H10.4783H10.4632H10.448H10.4329H10.4177H10.4026H10.3874H10.3721H10.3569H10.3417H10.3264H10.3111H10.2958H10.2805H10.2652H10.2498H10.2344H10.2191H10.2037H10.1883H10.1728H10.1574H10.1419H10.1264H10.1109H10.0954H10.0799H10.0644H10.0488H10.0332H10.0177H10.0021H9.98643H9.9708H9.95515H9.93949H9.92381H9.90812H9.89241H9.87669H9.86096H9.84521H9.82944H9.81366H9.79787H9.78206H9.76624H9.7504H9.73455H9.71869H9.70281H9.68692H9.67101H9.65509H9.63916H9.62322H9.60726H9.59128H9.5753H9.5593H9.54329H9.52726H9.51123H9.49518H9.47911H9.46304H9.44695H9.43085H9.41473H9.39861H9.38247H9.36632H9.35016H9.33398H9.31781H9.30165H9.2855H9.26936H9.25323H9.23712H9.22102H9.20493H9.18886H9.17279H9.15674H9.14071H9.12468H9.10867H9.09267H9.07668H9.06071H9.04475H9.02881H9.01288H8.99696H8.98105H8.96516H8.94928H8.93342H8.91757H8.90173H8.88591H8.8701H8.85431H8.83853H8.82276H8.80701H8.79128H8.77555H8.75985H8.74416H8.72848H8.71282H8.69717H8.68153H8.66592H8.65031H8.63473H8.61916H8.6036H8.58806H8.57253H8.55702H8.54153H8.52605H8.51059H8.49514H8.47971H8.4643H8.4489H8.43352H8.41815H8.40281H8.38747H8.37216H8.35686H8.34158H8.32631H8.31106H8.29583H8.28061H8.26542H8.25024H8.23507H8.21993H8.2048H8.18969H8.17459H8.15952H8.14446H8.12942H8.1144H8.09939H8.08441H8.06944H8.05449H8.03956H8.02464H8.00975H7.99487H7.98001H7.96517H7.95035H7.93555H7.92077H7.906H7.89126H7.87653H7.86182H7.84714H7.83247H7.81782H7.80319H7.78858H7.77399H7.75942H7.74487H7.73034H7.71583H7.70134H7.68687H7.67242H7.65799H7.64358H7.62919H7.61482H7.60047H7.58614H7.57183H7.55755H7.54328H7.52904H7.51481H7.50061H7.48643H7.47227H7.45813H7.44401H7.42992H7.41584H7.40179H7.38776H7.37375H7.35976H7.3458H7.33185H7.31793H7.30403H7.29016H7.2763H7.26247H7.24866H7.23487H7.22111H7.20737H7.19365H7.17995H7.16628H7.15263H7.139H7.1254H7.11182H7.09826H7.08472H7.07121H7.05773H7.04426H7.03082H7.01741H7.00402H6.99065H6.9773H6.96398H6.95069H6.93742H6.92417H6.91095H6.89775H6.88457H6.87142H6.8583H6.8452H6.83212H6.81907H6.80605H6.79305H6.78008H6.76713H6.7542H6.7413H6.72843H6.71558H6.70276H6.68996H6.67719H6.66445H6.65173H6.63904H6.62637H6.61373H6.60111H6.58853H6.57596H6.56343H6.55092H6.53844H6.52598H6.51355H6.50115H6.48878H6.47643H6.46411H6.45181H6.43955H6.42731H6.4151H6.40291H6.39075H6.37863H6.36652H6.35445H6.3424H6.33039H6.3184H6.30643H6.2945H6.2826H6.27072H6.25887H6.24705H6.23526H6.22349H6.21176H6.20005H6.18838H6.17673H6.16511H6.15352H6.14196H6.13043H6.11893H6.10745H6.09601H6.0846H6.07321H6.06186H6.05053H6.03924H6.02797H6.01674H6.00553H5.99436H5.98321H5.9721H5.96101H5.94996H5.93894H5.92794H5.91698H5.90605H5.89515H5.88428H5.87344H5.86264H5.85186H5.84112H5.8304H5.81972H5.80907H5.79845H5.78786H5.77731H5.76678H5.75629H5.74583H5.7354H5.72501H5.71464H5.70431H5.69401H5.68374H5.67351H5.66331H5.65314H5.643H5.63289H5.62282H5.61278H5.60278H5.59281H5.58287H5.57296H5.56309H5.55325H5.54344H5.53367H5.52393H5.51422H5.50455H5.49492H5.48531H5.47574H5.46621H5.4567H5.44724H5.4378H5.4284H5.41904H5.40971H5.40041H5.39115H5.38193H5.37274H5.36358H5.35446H5.34537H5.33632H5.32731H5.31833H5.30938H5.30047H5.2916H5.28276H5.27396H5.26519H5.25646H5.24776H5.2391H5.23048H5.22189H5.21334H5.20483H5.19635H5.18791H5.1795H5.17113H5.1628H5.1545H5.14625H5.13802H5.12984H5.12169H5.11358H5.10551H5.09747H5.08947H5.08151H5.07359H5.0657H5.05785H5.05004H5.04227H5.03453H5.02683H5.01918H5.01155H5.00397H4.99643H4.98892H4.98145H4.97402H4.96663H4.95928H4.95197H4.94469H4.93746H4.93026H4.9231H4.91598H4.90891H4.90187H4.89486H4.8879H4.88098H4.8741H4.86726Z" fill="#636E72" stroke="#636E72"/>
<path d="M9.83398 0.5C9.83398 0.223858 9.61013 0 9.33398 0C9.05784 0 8.83398 0.223858 8.83398 0.5L9.83398 0.5ZM8.98043 5.85355C9.17569 6.04882 9.49228 6.04882 9.68754 5.85355L12.8695 2.67157C13.0648 2.47631 13.0648 2.15973 12.8695 1.96447C12.6743 1.7692 12.3577 1.7692 12.1624 1.96447L9.33398 4.79289L6.50556 1.96447C6.3103 1.7692 5.99371 1.7692 5.79845 1.96447C5.60319 2.15973 5.60319 2.47631 5.79845 2.67157L8.98043 5.85355ZM8.83398 0.5V5.5H9.83398V0.5L8.83398 0.5Z" fill="#636E72"/>
<line x1="0.833984" y1="12" x2="17.834" y2="12" stroke="#636E72" stroke-linecap="round"/>
</g>
</svg>
