<svg width="25" height="25" viewBox="0 0 25 25" fill="none" xmlns="http://www.w3.org/2000/svg">
<path d="M23.0572 11.327L18.3642 16.0185C15.7738 18.6104 11.5716 18.6104 8.9813 16.0185C8.57306 15.6118 8.25394 15.1534 7.97365 14.6803L10.1542 12.4999C10.2578 12.3953 10.3858 12.3354 10.5081 12.265C10.6588 12.7801 10.922 13.2677 11.327 13.6727C12.6206 14.9671 14.7258 14.9655 16.0185 13.6727L20.7099 8.98129C22.0043 7.68692 22.0043 5.58258 20.7099 4.28904C19.4171 2.99551 17.3128 2.99551 16.0185 4.28904L14.3499 5.95924C12.9964 5.43193 11.5376 5.29021 10.1177 5.49834L13.6727 1.94333C16.2647 -0.647778 20.4652 -0.647778 23.0572 1.94333C25.6476 4.53455 25.6476 8.73594 23.0572 11.327ZM10.6507 19.0413L8.9813 20.7115C7.68775 22.0043 5.58256 22.0043 4.28902 20.7115C2.99548 19.4172 2.99548 17.3128 4.28902 16.0185L8.9813 11.3271C10.2757 10.0327 12.3792 10.0327 13.6727 11.3271C14.0769 11.7313 14.3402 12.2189 14.4925 12.7332C14.6156 12.662 14.742 12.6036 14.8457 12.5L17.0262 10.3203C16.7475 9.84565 16.4268 9.38879 16.0185 8.98139C13.4282 6.39028 9.22598 6.39028 6.63479 8.98139L1.94335 13.6728C-0.647783 16.2647 -0.647783 20.4653 1.94335 23.0572C4.53448 25.6476 8.73589 25.6476 11.3271 23.0572L14.8829 19.5014C13.4622 19.7104 12.0034 19.5678 10.6507 19.0413Z" fill="#477FB2"/>
</svg>
