<svg width="359" height="151" viewBox="0 0 359 151" fill="none" xmlns="http://www.w3.org/2000/svg">
<g clip-path="url(#clip0_1785_1183)">
<rect width="301" height="161" rx="5" transform="matrix(1 0 0.35576 0.934578 0.422852 0.266479)" fill="white"/>
<g clip-path="url(#clip1_1785_1183)">
<path d="M2.34609 4.00478C1.75665 2.45632 2.62195 1.20105 4.27881 1.20105H298.279C299.936 1.20105 301.757 2.45632 302.346 4.00478L320.134 50.7337H20.1341L2.34609 4.00478Z" fill="white"/>
<rect x="2.03364" y="1.40187" width="30" height="50" rx="3.5" transform="matrix(1 0 0.35576 0.934578 0.780081 1.29276)" fill="#477FB2" stroke="white" stroke-width="3"/>
<path opacity="0.5" d="M15.8919 32.159L40.5636 25.1418L48.6512 46.3879C49.0441 47.4202 48.4672 48.2571 47.3627 48.2571H24.0198C22.9153 48.2571 21.7013 47.4202 21.3083 46.3879L15.8919 32.159Z" fill="black"/>
<rect x="2.03364" y="1.40187" width="31" height="50" rx="3.5" transform="matrix(1 0 0.35576 0.934578 33.7801 1.29276)" fill="#477FB2" stroke="white" stroke-width="3"/>
<path opacity="0.5" d="M48.9778 32.159L74.4781 25.1418L82.5657 46.3879C82.9586 47.4202 82.3818 48.2571 81.2772 48.2571H57.1058C56.0012 48.2571 54.7872 47.4202 54.3942 46.3879L48.9778 32.159Z" fill="black"/>
<rect x="2.03364" y="1.40187" width="30" height="50" rx="3.5" transform="matrix(1 0 0.35576 0.934578 67.7801 1.29276)" fill="#477FB2" stroke="white" stroke-width="3"/>
<path opacity="0.5" d="M82.8919 32.159L107.564 25.1418L115.651 46.3879C116.044 47.4202 115.467 48.2571 114.363 48.2571H91.0198C89.9153 48.2571 88.7013 47.4202 88.3083 46.3879L82.8919 32.159Z" fill="black"/>
<rect x="2.03364" y="1.40187" width="31" height="50" rx="3.5" transform="matrix(1 0 0.35576 0.934578 100.78 1.29276)" fill="#477FB2" stroke="white" stroke-width="3"/>
<path opacity="0.5" d="M115.978 32.159L141.478 25.1418L149.566 46.3879C149.959 47.4202 149.382 48.2571 148.277 48.2571H124.106C123.001 48.2571 121.787 47.4202 121.394 46.3879L115.978 32.159Z" fill="black"/>
<rect x="2.03364" y="1.40187" width="30" height="50" rx="3.5" transform="matrix(1 0 0.35576 0.934578 134.78 1.29276)" fill="#477FB2" stroke="white" stroke-width="3"/>
<path opacity="0.5" d="M149.892 32.159L174.564 25.1418L182.651 46.3879C183.044 47.4202 182.467 48.2571 181.363 48.2571H158.02C156.915 48.2571 155.701 47.4202 155.308 46.3879L149.892 32.159Z" fill="black"/>
<rect x="2.03364" y="1.40187" width="30" height="50" rx="3.5" transform="matrix(1 0 0.35576 0.934578 167.78 1.29276)" fill="#477FB2" stroke="white" stroke-width="3"/>
<path opacity="0.5" d="M182.892 32.159L207.564 25.1418L215.651 46.3879C216.044 47.4202 215.467 48.2571 214.363 48.2571H191.02C189.915 48.2571 188.701 47.4202 188.308 46.3879L182.892 32.159Z" fill="black"/>
<rect x="2.03364" y="1.40187" width="30" height="50" rx="3.5" transform="matrix(1 0 0.35576 0.934578 200.78 1.29276)" fill="#477FB2" stroke="white" stroke-width="3"/>
<path opacity="0.5" d="M215.892 32.159L240.564 25.1418L248.651 46.3879C249.044 47.4202 248.467 48.2571 247.363 48.2571H224.02C222.915 48.2571 221.701 47.4202 221.308 46.3879L215.892 32.159Z" fill="black"/>
<rect x="2.03364" y="1.40187" width="31" height="50" rx="3.5" transform="matrix(1 0 0.35576 0.934578 233.78 1.29276)" fill="#477FB2" stroke="white" stroke-width="3"/>
<path opacity="0.5" d="M248.978 32.159L274.478 25.1418L282.566 46.3879C282.959 47.4202 282.382 48.2571 281.277 48.2571H257.106C256.001 48.2571 254.787 47.4202 254.394 46.3879L248.978 32.159Z" fill="black"/>
<rect x="2.03364" y="1.40187" width="30" height="50" rx="3.5" transform="matrix(1 0 0.35576 0.934578 267.78 1.29276)" fill="#477FB2" stroke="white" stroke-width="3"/>
<path opacity="0.5" d="M282.892 32.159L307.564 25.1418L315.651 46.3879C316.044 47.4202 315.467 48.2571 314.363 48.2571H291.02C289.915 48.2571 288.701 47.4202 288.308 46.3879L282.892 32.159Z" fill="black"/>
</g>
<g clip-path="url(#clip2_1785_1183)">
<rect width="300" height="53" transform="matrix(1 0 0.35576 0.934578 20.1338 50.7336)" fill="white"/>
<rect x="2.03364" y="1.40187" width="30" height="50" rx="3.5" transform="matrix(1 0 0.35576 0.934578 19.6351 50.8254)" fill="#477FB2" stroke="white" stroke-width="3"/>
<path opacity="0.5" d="M34.7468 81.6916L59.4185 74.6744L67.5061 95.9205C67.8991 96.9528 67.3222 97.7897 66.2177 97.7897H42.8748C41.7702 97.7897 40.5562 96.9528 40.1633 95.9205L34.7468 81.6916Z" fill="black"/>
<rect x="2.03364" y="1.40187" width="31" height="50" rx="3.5" transform="matrix(1 0 0.35576 0.934578 52.6351 50.8254)" fill="#477FB2" stroke="white" stroke-width="3"/>
<path opacity="0.5" d="M67.8328 81.6916L93.333 74.6744L101.421 95.9205C101.814 96.9528 101.237 97.7897 100.132 97.7897H75.9607C74.8562 97.7897 73.6422 96.9528 73.2492 95.9205L67.8328 81.6916Z" fill="black"/>
<rect x="2.03364" y="1.40187" width="30" height="50" rx="3.5" transform="matrix(1 0 0.35576 0.934578 86.6351 50.8254)" fill="#477FB2" stroke="white" stroke-width="3"/>
<path opacity="0.5" d="M101.747 81.6916L126.419 74.6744L134.506 95.9205C134.899 96.9528 134.322 97.7897 133.218 97.7897H109.875C108.77 97.7897 107.556 96.9528 107.163 95.9205L101.747 81.6916Z" fill="black"/>
<rect x="2.03364" y="1.40187" width="31" height="50" rx="3.5" transform="matrix(1 0 0.35576 0.934578 119.635 50.8254)" fill="#477FB2" stroke="white" stroke-width="3"/>
<path opacity="0.5" d="M134.833 81.6916L160.333 74.6744L168.421 95.9205C168.814 96.9528 168.237 97.7897 167.132 97.7897H142.961C141.856 97.7897 140.642 96.9528 140.249 95.9205L134.833 81.6916Z" fill="black"/>
<rect x="2.03364" y="1.40187" width="30" height="50" rx="3.5" transform="matrix(1 0 0.35576 0.934578 153.635 50.8254)" fill="#477FB2" stroke="white" stroke-width="3"/>
<path opacity="0.5" d="M168.747 81.6916L193.419 74.6744L201.506 95.9205C201.899 96.9528 201.322 97.7897 200.218 97.7897H176.875C175.77 97.7897 174.556 96.9528 174.163 95.9205L168.747 81.6916Z" fill="black"/>
<rect x="2.03364" y="1.40187" width="30" height="50" rx="3.5" transform="matrix(1 0 0.35576 0.934578 186.635 50.8254)" fill="#477FB2" stroke="white" stroke-width="3"/>
<path opacity="0.5" d="M201.747 81.6916L226.419 74.6744L234.506 95.9205C234.899 96.9528 234.322 97.7897 233.218 97.7897H209.875C208.77 97.7897 207.556 96.9528 207.163 95.9205L201.747 81.6916Z" fill="black"/>
<rect x="2.03364" y="1.40187" width="30" height="50" rx="3.5" transform="matrix(1 0 0.35576 0.934578 219.635 50.8254)" fill="#477FB2" stroke="white" stroke-width="3"/>
<path opacity="0.5" d="M234.747 81.6916L259.419 74.6744L267.506 95.9205C267.899 96.9528 267.322 97.7897 266.218 97.7897H242.875C241.77 97.7897 240.556 96.9528 240.163 95.9205L234.747 81.6916Z" fill="black"/>
<rect x="2.03364" y="1.40187" width="31" height="50" rx="3.5" transform="matrix(1 0 0.35576 0.934578 252.635 50.8254)" fill="#477FB2" stroke="white" stroke-width="3"/>
<path opacity="0.5" d="M267.833 81.6916L293.333 74.6744L301.421 95.9205C301.814 96.9528 301.237 97.7897 300.132 97.7897H275.961C274.856 97.7897 273.642 96.9528 273.249 95.9205L267.833 81.6916Z" fill="black"/>
<rect x="2.03364" y="1.40187" width="30" height="50" rx="3.5" transform="matrix(1 0 0.35576 0.934578 286.635 50.8254)" fill="#477FB2" stroke="white" stroke-width="3"/>
<path opacity="0.5" d="M301.747 81.6916L326.419 74.6744L334.506 95.9205C334.899 96.9528 334.322 97.7897 333.218 97.7897H309.875C308.77 97.7897 307.556 96.9528 307.163 95.9205L301.747 81.6916Z" fill="black"/>
</g>
<g clip-path="url(#clip3_1785_1183)">
<rect width="300" height="53" transform="matrix(1 0 0.35576 0.934578 38.9893 100.266)" fill="white"/>
<rect x="2.03364" y="1.40187" width="30" height="50" rx="3.5" transform="matrix(1 0 0.35576 0.934578 38.4905 100.358)" fill="#477FB2" stroke="white" stroke-width="3"/>
<path opacity="0.5" d="M53.6023 131.224L78.274 124.207L86.3616 145.453C86.7546 146.485 86.1777 147.322 85.0731 147.322H61.7303C60.6257 147.322 59.4117 146.485 59.0188 145.453L53.6023 131.224Z" fill="black"/>
<rect x="2.03364" y="1.40187" width="31" height="50" rx="3.5" transform="matrix(1 0 0.35576 0.934578 71.4905 100.358)" fill="#477FB2" stroke="white" stroke-width="3"/>
<path opacity="0.5" d="M86.6883 131.224L112.189 124.207L120.276 145.453C120.669 146.485 120.092 147.322 118.988 147.322H94.8162C93.7116 147.322 92.4976 146.485 92.1047 145.453L86.6883 131.224Z" fill="black"/>
<rect x="2.03364" y="1.40187" width="30" height="50" rx="3.5" transform="matrix(1 0 0.35576 0.934578 105.491 100.358)" fill="#477FB2" stroke="white" stroke-width="3"/>
<path opacity="0.5" d="M120.602 131.224L145.274 124.207L153.362 145.453C153.755 146.485 153.178 147.322 152.073 147.322H128.73C127.626 147.322 126.412 146.485 126.019 145.453L120.602 131.224Z" fill="black"/>
<rect x="2.03364" y="1.40187" width="31" height="50" rx="3.5" transform="matrix(1 0 0.35576 0.934578 138.491 100.358)" fill="#477FB2" stroke="white" stroke-width="3"/>
<path opacity="0.5" d="M153.688 131.224L179.189 124.207L187.276 145.453C187.669 146.485 187.092 147.322 185.988 147.322H161.816C160.712 147.322 159.498 146.485 159.105 145.453L153.688 131.224Z" fill="black"/>
<rect x="2.03364" y="1.40187" width="30" height="50" rx="3.5" transform="matrix(1 0 0.35576 0.934578 172.491 100.358)" fill="#477FB2" stroke="white" stroke-width="3"/>
<path opacity="0.5" d="M187.602 131.224L212.274 124.207L220.362 145.453C220.755 146.485 220.178 147.322 219.073 147.322H195.73C194.626 147.322 193.412 146.485 193.019 145.453L187.602 131.224Z" fill="black"/>
<rect x="2.03364" y="1.40187" width="30" height="50" rx="3.5" transform="matrix(1 0 0.35576 0.934578 205.491 100.358)" fill="#477FB2" stroke="white" stroke-width="3"/>
<path opacity="0.5" d="M220.602 131.224L245.274 124.207L253.362 145.453C253.755 146.485 253.178 147.322 252.073 147.322H228.73C227.626 147.322 226.412 146.485 226.019 145.453L220.602 131.224Z" fill="black"/>
<rect x="2.03364" y="1.40187" width="30" height="50" rx="3.5" transform="matrix(1 0 0.35576 0.934578 238.491 100.358)" fill="#477FB2" stroke="white" stroke-width="3"/>
<path opacity="0.5" d="M253.602 131.224L278.274 124.207L286.362 145.453C286.755 146.485 286.178 147.322 285.073 147.322H261.73C260.626 147.322 259.412 146.485 259.019 145.453L253.602 131.224Z" fill="black"/>
<rect x="2.03364" y="1.40187" width="31" height="50" rx="3.5" transform="matrix(1 0 0.35576 0.934578 271.491 100.358)" fill="#477FB2" stroke="white" stroke-width="3"/>
<path opacity="0.5" d="M286.688 131.224L312.189 124.207L320.276 145.453C320.669 146.485 320.092 147.322 318.988 147.322H294.816C293.712 147.322 292.498 146.485 292.105 145.453L286.688 131.224Z" fill="black"/>
<rect x="2.03364" y="1.40187" width="30" height="50" rx="3.5" transform="matrix(1 0 0.35576 0.934578 305.491 100.358)" fill="#477FB2" stroke="white" stroke-width="3"/>
<path opacity="0.5" d="M320.602 131.224L345.274 124.207L353.362 145.453C353.755 146.485 353.178 147.322 352.073 147.322H328.73C327.626 147.322 326.412 146.485 326.019 145.453L320.602 131.224Z" fill="black"/>
</g>
</g>
<defs>
<clipPath id="clip0_1785_1183">
<rect width="301" height="161" rx="5" transform="matrix(1 0 0.35576 0.934578 0.422852 0.266479)" fill="white"/>
</clipPath>
<clipPath id="clip1_1785_1183">
<path d="M2.34609 4.00478C1.75665 2.45632 2.62195 1.20105 4.27881 1.20105H298.279C299.936 1.20105 301.757 2.45632 302.346 4.00478L320.134 50.7337H20.1341L2.34609 4.00478Z" fill="white"/>
</clipPath>
<clipPath id="clip2_1785_1183">
<rect width="300" height="53" fill="white" transform="matrix(1 0 0.35576 0.934578 20.1338 50.7336)"/>
</clipPath>
<clipPath id="clip3_1785_1183">
<rect width="300" height="53" fill="white" transform="matrix(1 0 0.35576 0.934578 38.9893 100.266)"/>
</clipPath>
</defs>
</svg>
