<svg width="260" height="154" viewBox="0 0 260 154" fill="none" xmlns="http://www.w3.org/2000/svg">
<g filter="url(#filter0_d_3008_18435)">
<rect width="172.572" height="111.28" rx="5" transform="matrix(1 0 0.35576 0.934578 23.9194 25)" fill="#2D3436"/>
</g>
<g clip-path="url(#clip0_3008_18435)">
<rect width="168.104" height="106.013" rx="5" transform="matrix(1 0 0.35576 0.934578 27.0903 27.4615)" fill="white"/>
<g clip-path="url(#clip1_3008_18435)">
<rect width="167" height="53" transform="matrix(1 0 0.35576 0.934578 27.6447 27.4674)" fill="white"/>
<rect x="2.03364" y="1.40187" width="30" height="50" rx="3.5" transform="matrix(1 0 0.35576 0.934578 27.1459 27.5591)" fill="#477FB2" stroke="white" stroke-width="3"/>
<path opacity="0.5" d="M42.2577 58.4253L66.9294 51.4081L75.017 72.6542C75.41 73.6865 74.8331 74.5234 73.7285 74.5234H50.3857C49.2811 74.5234 48.0671 73.6865 47.6741 72.6542L42.2577 58.4253Z" fill="black"/>
<rect x="2.03364" y="1.40187" width="31" height="50" rx="3.5" transform="matrix(1 0 0.35576 0.934578 60.1459 27.5591)" fill="#477FB2" stroke="white" stroke-width="3"/>
<path opacity="0.5" d="M75.3435 58.4253L100.844 51.4081L108.931 72.6542C109.324 73.6865 108.747 74.5234 107.643 74.5234H83.4715C82.3669 74.5234 81.1529 73.6865 80.76 72.6542L75.3435 58.4253Z" fill="black"/>
<rect x="2.03364" y="1.40187" width="30" height="50" rx="3.5" transform="matrix(1 0 0.35576 0.934578 94.1459 27.5591)" fill="#477FB2" stroke="white" stroke-width="3"/>
<path opacity="0.5" d="M109.258 58.4253L133.929 51.4081L142.017 72.6542C142.41 73.6865 141.833 74.5234 140.729 74.5234H117.386C116.281 74.5234 115.067 73.6865 114.674 72.6542L109.258 58.4253Z" fill="black"/>
<rect x="2.03364" y="1.40187" width="31" height="50" rx="3.5" transform="matrix(1 0 0.35576 0.934578 127.146 27.5591)" fill="#477FB2" stroke="white" stroke-width="3"/>
<path opacity="0.5" d="M142.344 58.4253L167.844 51.4081L175.931 72.6542C176.324 73.6865 175.747 74.5234 174.643 74.5234H150.471C149.367 74.5234 148.153 73.6865 147.76 72.6542L142.344 58.4253Z" fill="black"/>
<rect x="2.03364" y="1.40187" width="30" height="50" rx="3.5" transform="matrix(1 0 0.35576 0.934578 161.146 27.5591)" fill="#477FB2" stroke="white" stroke-width="3"/>
<path opacity="0.5" d="M176.258 58.4253L200.929 51.4081L209.017 72.6542C209.41 73.6865 208.833 74.5234 207.729 74.5234H184.386C183.281 74.5234 182.067 73.6865 181.674 72.6542L176.258 58.4253Z" fill="black"/>
</g>
<g clip-path="url(#clip2_3008_18435)">
<rect width="167" height="53" transform="matrix(1 0 0.35576 0.934578 46.4999 77)" fill="white"/>
<rect x="2.03364" y="1.40187" width="30" height="50" rx="3.5" transform="matrix(1 0 0.35576 0.934578 46.0012 77.0917)" fill="#477FB2" stroke="white" stroke-width="3"/>
<path opacity="0.5" d="M61.1129 107.958L85.7846 100.941L93.8722 122.187C94.2652 123.219 93.6883 124.056 92.5837 124.056H69.2409C68.1363 124.056 66.9223 123.219 66.5294 122.187L61.1129 107.958Z" fill="black"/>
<rect x="2.03364" y="1.40187" width="31" height="50" rx="3.5" transform="matrix(1 0 0.35576 0.934578 79.0012 77.0917)" fill="#477FB2" stroke="white" stroke-width="3"/>
<path opacity="0.5" d="M94.1987 107.958L119.699 100.941L127.787 122.187C128.18 123.219 127.603 124.056 126.498 124.056H102.327C101.222 124.056 100.008 123.219 99.6152 122.187L94.1987 107.958Z" fill="black"/>
<rect x="2.03364" y="1.40187" width="30" height="50" rx="3.5" transform="matrix(1 0 0.35576 0.934578 113.001 77.0917)" fill="#477FB2" stroke="white" stroke-width="3"/>
<path opacity="0.5" d="M128.113 107.958L152.785 100.941L160.872 122.187C161.265 123.219 160.688 124.056 159.584 124.056H136.241C135.136 124.056 133.922 123.219 133.529 122.187L128.113 107.958Z" fill="black"/>
<rect x="2.03364" y="1.40187" width="31" height="50" rx="3.5" transform="matrix(1 0 0.35576 0.934578 146.001 77.0917)" fill="#477FB2" stroke="white" stroke-width="3"/>
<path opacity="0.5" d="M161.199 107.958L186.699 100.941L194.787 122.187C195.18 123.219 194.603 124.056 193.498 124.056H169.327C168.222 124.056 167.008 123.219 166.615 122.187L161.199 107.958Z" fill="black"/>
<rect x="2.03364" y="1.40187" width="30" height="50" rx="3.5" transform="matrix(1 0 0.35576 0.934578 180.001 77.0917)" fill="#477FB2" stroke="white" stroke-width="3"/>
<path opacity="0.5" d="M195.113 107.958L219.785 100.941L227.872 122.187C228.265 123.219 227.688 124.056 226.584 124.056H203.241C202.136 124.056 200.922 123.219 200.529 122.187L195.113 107.958Z" fill="black"/>
</g>
</g>
<defs>
<filter id="filter0_d_3008_18435" x="0.389771" y="0" width="259.22" height="154" filterUnits="userSpaceOnUse" color-interpolation-filters="sRGB">
<feFlood flood-opacity="0" result="BackgroundImageFix"/>
<feColorMatrix in="SourceAlpha" type="matrix" values="0 0 0 0 0 0 0 0 0 0 0 0 0 0 0 0 0 0 127 0" result="hardAlpha"/>
<feOffset/>
<feGaussianBlur stdDeviation="12.5"/>
<feComposite in2="hardAlpha" operator="out"/>
<feColorMatrix type="matrix" values="0 0 0 0 0.388235 0 0 0 0 0.431373 0 0 0 0 0.447059 0 0 0 0.25 0"/>
<feBlend mode="normal" in2="BackgroundImageFix" result="effect1_dropShadow_3008_18435"/>
<feBlend mode="normal" in="SourceGraphic" in2="effect1_dropShadow_3008_18435" result="shape"/>
</filter>
<clipPath id="clip0_3008_18435">
<rect width="168.104" height="106.013" rx="5" transform="matrix(1 0 0.35576 0.934578 27.0903 27.4615)" fill="white"/>
</clipPath>
<clipPath id="clip1_3008_18435">
<rect width="167" height="53" fill="white" transform="matrix(1 0 0.35576 0.934578 27.6447 27.4674)"/>
</clipPath>
<clipPath id="clip2_3008_18435">
<rect width="167" height="53" fill="white" transform="matrix(1 0 0.35576 0.934578 46.4999 77)"/>
</clipPath>
</defs>
</svg>
